<?xml version="1.0" encoding="utf-8"?>
<!-- Generator: Adobe Illustrator 26.0.1, SVG Export Plug-In . SVG Version: 6.00 Build 0)  -->
<svg version="1.1" id="Capa_1" xmlns="http://www.w3.org/2000/svg" xmlns:xlink="http://www.w3.org/1999/xlink" x="0px" y="0px"
	 viewBox="0 0 217.4 217.4" style="enable-background:new 0 0 217.4 217.4;" xml:space="preserve">
<g id="XMLID_00000163793453920741118090000003479756525733201064_">
	<g>
		<path d="M185,34.6c11.9,9.1,17.6,19.8,17.4,32.8c-0.3,21.7-17.1,50-48.6,81.6c-18.4,18.5-36.9,33.2-45.1,39.5
			c-8.2-6.3-26.8-21-45.1-39.5C32.1,117.4,15.3,89.1,15,67.4c-0.2-13,5.5-23.7,17.4-32.8c8.1-6.2,16.9-9.3,26.2-9.3
			c17.6,0,34.3,10.9,45.3,20.1l4.8,4l4.8-4c11-9.2,27.8-20.1,45.3-20.1C168.1,25.3,176.9,28.4,185,34.6z"/>
		<path d="M194.1,22.7c15.7,12,23.5,27.1,23.3,44.9c-0.8,61.1-100.1,133.3-104.3,136.3l-4.4,3.2l-4.4-3.2
			C100.1,200.8,0.8,128.7,0,67.6c-0.2-17.8,7.6-32.9,23.4-45C34.1,14.5,46,10.3,58.6,10.3c15.9,0,33.2,6.8,50.2,19.9
			c16.9-13,34.1-19.8,50.1-19.8C171.5,10.4,183.4,14.5,194.1,22.7z M202.4,67.4c0.2-13-5.5-23.7-17.4-32.8
			c-8.1-6.2-16.9-9.3-26.2-9.3c-17.5,0-34.3,10.9-45.3,20.1l-4.8,4l-4.8-4c-11-9.2-27.7-20.1-45.3-20.1c-9.3,0-18.1,3.1-26.2,9.3
			C20.5,43.7,14.8,54.4,15,67.4c0.3,21.7,17.1,50,48.6,81.6c18.3,18.5,36.9,33.2,45.1,39.5c8.2-6.3,26.7-21,45.1-39.5
			C185.3,117.4,202.1,89.1,202.4,67.4z"/>
	</g>
	<g>
	</g>
</g>
</svg>
